<?xml version="1.0" encoding="UTF-8"?>
<svg width="44px" height="17px" viewBox="0 0 44 17" version="1.1" xmlns="http://www.w3.org/2000/svg" xmlns:xlink="http://www.w3.org/1999/xlink">
    <!-- Generator: Sketch 52.6 (67491) - http://www.bohemiancoding.com/sketch -->
    <title>合并形状</title>
    <desc>Created with Sketch.</desc>
    <g id="页面-1" stroke="none" stroke-width="1" fill="none" fill-rule="evenodd">
        <g id="钱包插件" transform="translate(-862.000000, -1330.000000)" fill="#EA754B">
            <g id="分组-5-copy-12" transform="translate(810.000000, 1318.000000)">
                <path d="M60.5,12 L87.5,12 C92.1944204,12 96,15.8055796 96,20.5 C96,25.1944204 92.1944204,29 87.5,29 L60.5,29 C55.8055796,29 52,25.1944204 52,20.5 C52,15.8055796 55.8055796,12 60.5,12 Z M60.2,15.93 L59.5,16.6 C60.11,17.09 60.58,17.55 60.9,17.97 L61.58,17.29 C61.2,16.84 60.74,16.39 60.2,15.93 Z M60.04,18.38 L59.34,19.05 C59.93,19.57 60.39,20.06 60.71,20.52 L61.38,19.84 C61.02,19.36 60.57,18.87 60.04,18.38 Z M60.64,21.13 C60.28,22.28 59.87,23.41 59.39,24.52 L60.33,24.93 C60.77,23.85 61.16,22.7 61.52,21.48 L60.64,21.13 Z M65.38,16.25 L61.75,16.25 L61.75,22.52 L62.67,22.52 L62.67,17.14 L64.46,17.14 L64.46,22.46 L65.38,22.46 L65.38,16.25 Z M64.31,22.84 L63.69,23.45 C64.28,24.02 64.73,24.55 65.05,25.05 L65.75,24.36 C65.35,23.86 64.87,23.35 64.31,22.84 Z M63.14,17.67 L63.14,20.8 C63.11,21.68 62.97,22.39 62.73,22.93 C62.48,23.43 62,23.86 61.29,24.2 L61.83,25.07 C62.57,24.72 63.11,24.22 63.44,23.58 C63.78,22.88 63.96,21.96 64,20.8 L64,17.67 L63.14,17.67 Z M67.39,24.96 C68.01,24.96 68.32,24.62 68.32,23.95 L68.32,15.85 L67.34,15.85 L67.34,23.7 C67.34,23.94 67.24,24.07 67.05,24.07 C66.74,24.07 66.41,24.04 66.07,24 L66.29,24.96 L67.39,24.96 Z M65.89,16.67 L65.89,22.83 L66.8,22.83 L66.8,16.67 L65.89,16.67 Z M73.54,20.72 L73.54,23.27 L72.67,23.39 L72.93,24.39 C73.91,24.22 74.84,24.01 75.71,23.77 L75.71,22.8 C75.33,22.9 74.95,23 74.56,23.08 L74.56,20.72 L75.39,20.72 L75.39,19.75 L72.72,19.75 L72.72,20.72 L73.54,20.72 Z M77.49,24.98 C77.97,24.98 78.4,24.24 78.76,22.78 L77.94,22.12 C77.78,23.24 77.63,23.81 77.49,23.84 C77.24,23.78 77.02,23.18 76.82,22.04 C76.69,21.13 76.6,19.95 76.56,18.49 L78.41,18.49 L78.41,17.47 L76.54,17.47 C76.52,16.93 76.52,16.36 76.52,15.75 L75.5,15.75 C75.5,16.34 75.5,16.91 75.52,17.47 L72.49,17.47 L72.49,18.49 L75.55,18.49 C75.59,19.75 75.67,20.82 75.79,21.69 C75.93,22.71 76.17,23.54 76.5,24.18 C76.78,24.71 77.11,24.98 77.49,24.98 Z M77.35,15.74 L76.64,16.19 C77.04,16.65 77.35,17.06 77.59,17.44 L78.31,16.94 C78.08,16.6 77.76,16.2 77.35,15.74 Z M70.78,15.85 L70.04,16.57 C70.71,17.09 71.23,17.58 71.6,18.04 L72.31,17.31 C71.89,16.83 71.38,16.34 70.78,15.85 Z M69.36,18.74 L69.36,19.74 L70.67,19.74 L70.67,23.31 C70.67,23.51 70.58,23.69 70.4,23.83 L70.8,24.77 C71.43,24.3 72.03,23.77 72.59,23.17 L72.32,22.07 C72.09,22.31 71.87,22.54 71.67,22.76 L71.67,18.74 L69.36,18.74 Z M83.57,22.72 L84.26,22.03 C83.9,21.47 83.55,20.96 83.21,20.5 C83.44,19.68 83.63,18.78 83.78,17.78 L82.82,17.61 C82.73,18.27 82.61,18.91 82.47,19.51 C82.13,19.07 81.81,18.69 81.51,18.37 L80.92,18.94 L80.92,17.11 L87.08,17.11 L87.08,22.43 C86.72,21.83 86.37,21.27 86.03,20.76 C86.31,19.88 86.54,18.89 86.71,17.81 L85.73,17.64 C85.62,18.37 85.48,19.06 85.31,19.71 C84.97,19.23 84.65,18.83 84.36,18.49 L83.72,19.11 C84.15,19.67 84.57,20.24 84.97,20.83 C84.63,21.77 84.21,22.59 83.71,23.31 L84.37,24.13 C84.85,23.49 85.27,22.74 85.63,21.86 C85.91,22.3 86.17,22.75 86.43,23.21 L87.08,22.56 L87.08,23.69 C87.08,23.91 86.96,24.02 86.73,24.02 L85.81,23.97 L86.07,24.98 L87.07,24.98 C87.76,24.98 88.11,24.63 88.11,23.93 L88.11,16.11 L79.89,16.11 L79.89,25.05 L80.92,25.05 L80.92,19.05 C81.34,19.56 81.76,20.09 82.16,20.63 C81.86,21.55 81.48,22.37 81.02,23.07 L81.68,23.89 C82.13,23.25 82.52,22.49 82.85,21.61 C83.09,21.97 83.33,22.34 83.57,22.72 Z" id="合并形状"></path>
            </g>
        </g>
    </g>
</svg>