<?xml version="1.0" encoding="UTF-8"?>
<svg width="437px" height="437px" viewBox="0 0 437 437" version="1.1" xmlns="http://www.w3.org/2000/svg" xmlns:xlink="http://www.w3.org/1999/xlink">
    <!-- Generator: Sketch 61.2 (89653) - https://sketch.com -->
    <title>DOT</title>
    <desc>Created with Sketch.</desc>
    <g id="页面-1" stroke="none" stroke-width="1" fill="none" fill-rule="evenodd">
        <g id="DOT" fill-rule="nonzero">
            <rect id="矩形" fill="#F2F2F2" transform="translate(218.110000, 218.110000) rotate(-90.000000) translate(-218.110000, -218.110000) " x="0" y="0" width="436.22" height="436.22" rx="218.11"></rect>
            <circle id="椭圆形" fill="#4D4D4D" cx="84.89" cy="298" r="22.44"></circle>
            <circle id="椭圆形" fill="#4D4D4D" cx="84.89" cy="222.44" r="22.44"></circle>
            <circle id="椭圆形" fill="#4D4D4D" cx="84.89" cy="146.89" r="22.44"></circle>
            <circle id="椭圆形" fill="#4D4D4D" cx="153.81" cy="334.98" r="22.44"></circle>
            <circle id="椭圆形" fill="#4D4D4D" cx="153.81" cy="259.43" r="22.44"></circle>
            <circle id="椭圆形" fill="#4D4D4D" cx="153.81" cy="183.88" r="22.44"></circle>
            <circle id="椭圆形" fill="#4D4D4D" cx="153.81" cy="108.33" r="22.44"></circle>
            <circle id="椭圆形" fill="#4D4D4D" cx="220.2" cy="373.55" r="22.44"></circle>
            <circle id="椭圆形" fill="#4D4D4D" cx="220.2" cy="298" r="22.44"></circle>
            <circle id="椭圆形" fill="#D64CA8" cx="220.2" cy="222.44" r="22.44"></circle>
            <circle id="椭圆形" fill="#4D4D4D" cx="220.2" cy="146.89" r="22.44"></circle>
            <circle id="椭圆形" fill="#4D4D4D" cx="220.2" cy="71.34" r="22.44"></circle>
            <circle id="椭圆形" fill="#4D4D4D" cx="289.12" cy="334.98" r="22.44"></circle>
            <circle id="椭圆形" fill="#4D4D4D" cx="289.12" cy="259.43" r="22.44"></circle>
            <circle id="椭圆形" fill="#4D4D4D" cx="289.12" cy="183.88" r="22.44"></circle>
            <circle id="椭圆形" fill="#4D4D4D" cx="289.12" cy="108.33" r="22.44"></circle>
            <circle id="椭圆形" fill="#4D4D4D" cx="355.5" cy="298" r="22.44"></circle>
            <circle id="椭圆形" fill="#4D4D4D" cx="355.5" cy="222.44" r="22.44"></circle>
            <circle id="椭圆形" fill="#4D4D4D" cx="355.5" cy="146.89" r="22.44"></circle>
        </g>
    </g>
</svg>