<?xml version="1.0" encoding="UTF-8"?>
<svg width="32px" height="32px" viewBox="0 0 32 32" version="1.1" xmlns="http://www.w3.org/2000/svg" xmlns:xlink="http://www.w3.org/1999/xlink">
    <!-- Generator: Sketch 61.2 (89653) - https://sketch.com -->
    <title>编组 4</title>
    <desc>Created with Sketch.</desc>
    <defs>
        <polygon id="path-1" points="0 0.0958030411 11.9726046 0.0958030411 11.9726046 11.8240688 0 11.8240688"></polygon>
        <path d="M1.931784,2.15887889 C1.77506369,2.23930698 1.62735322,2.34372675 1.49499752,2.4718896 L0.096189468,1.10175295 C1.17533886,0.0498480125 2.73619698,-0.237306374 4.07942326,0.239916868 C4.18817573,0.278701357 4.29629371,0.321836669 4.4021275,0.371187445 C4.75287643,0.53278948 5.08319462,0.750827919 5.37963076,1.02368674 L3.97904612,2.39568802" id="path-3"></path>
    </defs>
    <g id="页面-1" stroke="none" stroke-width="1" fill="none" fill-rule="evenodd">
        <g id="钱包插件" transform="translate(-438.000000, -832.000000)">
            <g id="分组-5-copy" transform="translate(418.000000, 686.000000)">
                <g id="编组-5" transform="translate(0.000000, 146.000000)">
                    <g id="编组-4" transform="translate(20.000000, 0.000000)">
                        <circle id="椭圆形" stroke="#DCE0E2" fill="#FFFFFF" cx="16" cy="16" r="15.5"></circle>
                        <g id="Group-6" transform="translate(6.588235, 6.588235)">
                            <g id="Group-3">
                                <mask id="mask-2" fill="white">
                                    <use xlink:href="#path-1"></use>
                                </mask>
                                <g id="Clip-2"></g>
                                <path d="M10.8527622,5.43018382 L7.85363723,2.49226553 C7.79383579,2.43380943 7.69705692,2.43380943 7.63738299,2.49226553 L6.44772968,3.6576402 C6.38805575,3.71609629 6.38805575,3.81090008 6.44772968,3.86948108 L9.41740017,6.77854605 C10.143433,7.48963694 10.1625592,8.67237357 9.42441313,9.37147346 C8.70717841,10.0507133 7.55960287,10.0435936 6.85154876,9.34986469 L2.52569901,5.11242249 C1.8176449,4.41869356 1.81024941,3.29453793 2.50364006,2.59194066 C3.21730453,1.86885878 4.42468151,1.88771961 5.1507143,2.5988105 L5.58258523,3.02199264 C5.64238667,3.08044873 5.73916554,3.08044873 5.79883947,3.02199264 L6.98849278,1.85674288 C7.04816671,1.79816188 7.04816671,1.70335809 6.98849278,1.64477709 L6.5270399,1.19274162 C5.03391662,-0.269909767 2.61304226,-0.269909767 1.11979146,1.19274162 C-0.373331825,2.655393 -0.373331825,5.02686176 1.11979146,6.48951314 L5.44564122,10.7270802 C6.93876451,12.1897316 9.35963886,12.1897316 10.8527622,10.7270802 L10.8527622,10.7269553 C12.3458854,9.26430396 12.3458854,6.89296011 10.8527622,5.43018382" id="Fill-1" fill="#EA754B" mask="url(#mask-2)"></path>
                            </g>
                            <path d="M17.709046,1.10121252 C16.2221795,-0.36707084 13.81194,-0.36707084 12.3259621,1.10121252 L9.41176471,3.97923345 L10.8040597,5.35437008 C10.8064716,5.35662666 10.8087566,5.35888325 10.8109146,5.36113983 L13.725239,2.4831189 C14.4377619,1.78019328 15.5972462,1.78019328 16.3090075,2.4831189 C17.0215305,3.18692207 17.0215305,4.3320126 16.3090075,5.03569041 L15.8503676,5.4885114 C15.790959,5.54718256 15.790959,5.64246051 15.8503676,5.70113167 L17.0347324,6.87066851 C17.0941411,6.92946504 17.1906166,6.92946504 17.2500253,6.87066851 L17.709046,6.41747142 C19.1950239,4.94906269 19.1950239,2.56962125 17.709046,1.10121252" id="Fill-4" fill="#34C69A"></path>
                            <path d="M15.598226,6.37437233 C15.5369722,6.31447134 15.4378429,6.31447134 15.3767197,6.37437233 L12.3039723,9.37874516 C12.1660533,9.51349045 12.0118086,9.62320248 11.8472461,9.70737039 C11.1384519,10.0703525 10.2408027,9.96089588 9.64550444,9.37874516 C9.64315355,9.37644619 9.64001902,9.37338089 9.63845176,9.37108192 C8.91555225,8.65648489 8.91555225,7.50061301 9.63845176,6.78601598 L8.19879118,5.37815126 C7.0051907,6.55011594 6.749074,8.29030979 7.42965744,9.70737039 C7.61694523,10.0979401 7.87619646,10.4648816 8.20584386,10.7873762 C8.62495579,11.1972318 9.11603116,11.49431 9.63845176,11.6796327 C10.0693182,11.8320034 10.5219956,11.9087635 10.9746731,11.9087635 C11.9771982,11.9087635 12.9790703,11.5349252 13.7442859,10.7873762 L16.8169027,7.78262021 C16.8780259,7.72297466 16.8780259,7.62590697 16.8169027,7.56600598 L15.598226,6.37437233 Z" id="Fill-6" fill="#34C69A"></path>
                            <path d="M17.6995488,12.4662133 L14.7619449,9.60384154 L13.3510504,10.978603 L16.2886543,13.8409747 C16.9997963,14.534029 17.0064509,15.6565327 16.3102816,16.3578169 C15.5940207,17.0790522 14.382507,17.0599739 13.6542167,16.3503352 L13.2205187,15.9279935 C13.1606276,15.8695116 13.0634967,15.8695116 13.0036056,15.9279935 L11.8096242,17.0912723 C11.7497331,17.1497543 11.7497331,17.244273 11.8096242,17.3027549 L12.2247663,17.7072652 C13.7280568,19.1719317 16.2268437,19.2098389 17.7193845,17.7345734 C18.4556091,17.0068539 18.8235294,16.0582997 18.8235294,15.1106183 C18.8235294,14.1534602 18.4489545,13.196302 17.6995488,12.4662133" id="Fill-8" fill="#F6C94A"></path>
                            <path d="M12.7080129,15.2799572 C12.7691606,15.2199487 12.7691606,15.1228348 12.7080129,15.0629543 L9.6413697,12.0533185 C9.50368953,11.9183314 9.39143326,11.7668388 9.30577429,11.60575 C8.93588922,10.9117502 9.04697208,10.0322231 9.6413697,9.44902777 L9.64854054,9.44186258 C10.3782715,8.73327645 11.558201,8.73327645 12.2879319,9.44186258 L13.7254902,8.03121576 C12.5279596,6.86239412 10.7515464,6.61122861 9.30577429,7.2781031 C8.90655396,7.4614552 8.53327903,7.71479585 8.20381144,8.03812505 C7.78529502,8.44897194 7.48177283,8.92916763 7.29324488,9.44186258 C7.13679014,9.86345725 7.05882353,10.3079549 7.05882353,10.7516849 C7.05882353,11.7336998 7.44083384,12.7153309 8.20381144,13.4640933 L11.270585,16.4736011 C11.3316024,16.5336096 11.43056,16.5336096 11.4917077,16.4736011 L12.7080129,15.2799572 Z" id="Fill-10" fill="#F6C94A"></path>
                            <path d="M11.9275588,9.45188904 C11.8868754,9.33848263 11.8400634,9.22673646 11.7868621,9.11639509 C11.6006574,8.7250919 11.3418224,8.35894757 11.0119219,8.03648003 C10.6842381,7.71477875 10.3119591,7.46204082 9.91464418,7.27903251 C9.80602477,7.22845938 9.69492785,7.18401633 9.58317894,7.14429855 C8.20294308,6.65414788 6.59907901,6.94890237 5.49019608,8.02958369 L6.92741476,9.43733011 C7.06354761,9.30553347 7.21519752,9.19838485 7.3763663,9.11562883 C8.0848048,8.75331579 8.98101274,8.86301861 9.57457284,9.44422644 L9.5816142,9.45112278 C10.1734792,10.0370559 10.2806642,10.919276 9.90147424,11.6117192 C9.81854273,11.7648434 9.71214005,11.9080062 9.5816142,12.0367378 L11.0197456,13.4453782 C12.1176754,12.3638029 12.4211056,10.7998672 11.9275588,9.45188904" id="Fill-12" fill="#46AEE2"></path>
                            <path d="M3.84246538,12.2477957 L5.49019608,10.6336857 L4.04686045,9.21968788 L2.39899881,10.8336696 C2.33758863,10.8937033 2.33758863,10.9911938 2.39899881,11.0512275 L3.6203936,12.2477957 C3.68167284,12.3079576 3.78118614,12.3079576 3.84246538,12.2477957" id="Fill-14" fill="#46AEE2"></path>
                            <path d="M5.09866463,16.3389092 C4.38605555,17.0429412 3.22663779,17.0429412 2.51491726,16.3389092 C1.80243512,15.6348773 1.80243512,14.4899631 2.51491726,13.7859311 L2.97035747,13.3357671 C3.02988965,13.2770664 3.02988965,13.1817405 2.97035747,13.1229144 L1.78618753,11.952789 C1.72678228,11.8940883 1.63043916,11.8940883 1.57090698,11.952789 L1.11508596,12.4032039 C-0.37169532,13.8723516 -0.37169532,16.2529905 1.11508596,17.7221382 C1.85879394,18.4563985 2.8323799,18.8241558 3.80596587,18.8235294 C4.78044038,18.8235294 5.75478795,18.4563985 6.49849593,17.7221382 L9.41176471,14.8426689 L8.01269502,13.4601925 L5.09866463,16.3389092 Z" id="Fill-16" fill="#46AEE2"></path>
                            <g id="Group-29" transform="translate(5.490196, 6.914766)">
                                <mask id="mask-4" fill="white">
                                    <use xlink:href="#path-3"></use>
                                </mask>
                                <g id="Clip-28"></g>
                                <path d="M1.931784,2.15887889 C2.58569472,1.82436267 3.403559,1.90379629 3.97904612,2.39568802 L5.37963076,1.02368674 C5.08319462,0.750827919 4.75287643,0.53278948 4.4021275,0.371187445 C4.29629371,0.321836669 4.18817573,0.278701357 4.07942326,0.239916868 C2.73619698,-0.237306374 1.17533886,0.0498480125 0.096189468,1.10175295 L1.49499752,2.4718896 C1.62735322,2.34372675 1.77506369,2.23930698 1.931784,2.15887889" id="Fill-27" mask="url(#mask-4)"></path>
                            </g>
                        </g>
                    </g>
                </g>
            </g>
        </g>
    </g>
</svg>