<svg xmlns="http://www.w3.org/2000/svg" viewBox="0 0 120 120"><defs><style>.cls-1{fill:#3f3f3f;}</style></defs><title>资源 43</title><g id="图层_2" data-name="图层 2"><g id="图层_1-2" data-name="图层 1"><path class="cls-1" d="M54.54,45.45a6.86,6.86,0,0,0,9.7,0L97,12.74A60,60,0,0,0,37.11,4.53a12,12,0,0,0-3.9,19.59Z"/><path class="cls-1" d="M44.84,55.15,12.75,23.06A60,60,0,0,0,4.12,81.9a12,12,0,0,0,19.64,4L44.84,64.85A6.86,6.86,0,0,0,44.84,55.15Z"/><path class="cls-1" d="M64.24,74.55a6.86,6.86,0,0,0-9.7,0L22.36,106.73l.07,0a60,60,0,0,0,59.44,9.1,12,12,0,0,0,4.06-19.64Z"/><path class="cls-1" d="M115.49,37.14a12,12,0,0,0-19.61-3.93L73.94,55.15a6.86,6.86,0,0,0,0,9.7l32.78,32.78,0-.07A60,60,0,0,0,115.49,37.14Z"/></g></g></svg>