<?xml version="1.0" encoding="UTF-8"?>
<svg width="88px" height="14px" viewBox="0 0 88 14" version="1.1" xmlns="http://www.w3.org/2000/svg"
     xmlns:xlink="http://www.w3.org/1999/xlink">
    <!-- Generator: Sketch 61.2 (89653) - https://sketch.com -->
    <title>编组 3备份</title>
    <desc>Created with Sketch.</desc>
    <g id="页面-1" stroke="none" stroke-width="1" fill="none" fill-rule="evenodd">
        <g id="钱包插件" transform="translate(-299.000000, -16.000000)" fill="#EA754B">
            <g id="编组-3备份" transform="translate(299.000000, 16.000000)">
                <path d="M78,0 C83.5228475,-1.01453063e-15 88,4.4771525 88,10 L88,14 L10,14 C4.4771525,14 6.76353751e-16,9.5228475 0,4 L0,0 L78,0 Z M30.09,4.69 C29.33,4.69 28.72,4.95 28.28,5.48 C27.82,6 27.6,6.64 27.6,7.41 C27.6,8.26 27.84,8.93 28.32,9.43 C28.76,9.9 29.37,10.14 30.13,10.14 C30.82,10.14 31.39,9.94 31.84,9.55 C32.2,9.23 32.43,8.82 32.55,8.34 L31.49,8.34 C31.35,8.64 31.2,8.87 31.02,9.01 C30.79,9.18 30.49,9.27 30.12,9.27 C29.7,9.27 29.37,9.13 29.13,8.87 C28.89,8.6 28.76,8.21 28.72,7.71 L32.64,7.71 C32.63,6.79 32.42,6.07 32.02,5.55 C31.58,4.97 30.93,4.69 30.09,4.69 Z M51.78,4.69 C51.02,4.69 50.41,4.95 49.97,5.48 C49.51,6 49.29,6.64 49.29,7.41 C49.29,8.26 49.53,8.93 50.01,9.43 C50.45,9.9 51.06,10.14 51.82,10.14 C52.51,10.14 53.08,9.94 53.53,9.55 C53.89,9.23 54.12,8.82 54.24,8.34 L53.18,8.34 C53.04,8.64 52.89,8.87 52.71,9.01 C52.48,9.18 52.18,9.27 51.81,9.27 C51.39,9.27 51.06,9.13 50.82,8.87 C50.58,8.6 50.45,8.21 50.41,7.71 L54.33,7.71 C54.32,6.79 54.11,6.07 53.71,5.55 C53.27,4.97 52.62,4.69 51.78,4.69 Z M60.88,4.69 C60.26,4.69 59.75,4.82 59.36,5.09 C58.97,5.35 58.78,5.72 58.78,6.19 C58.78,6.63 58.98,6.98 59.38,7.23 C59.62,7.39 60.05,7.54 60.66,7.68 C61.19,7.8 61.54,7.9 61.7,7.98 C62,8.12 62.16,8.32 62.16,8.57 C62.16,9.03 61.74,9.27 60.92,9.27 C60.52,9.27 60.24,9.2 60.06,9.07 C59.88,8.93 59.75,8.68 59.69,8.33 L58.65,8.33 C58.77,9.53 59.53,10.14 60.95,10.14 C62.48,10.14 63.25,9.59 63.25,8.5 C63.25,8.04 63.04,7.68 62.63,7.42 C62.35,7.24 61.91,7.07 61.32,6.93 C60.8,6.8 60.46,6.7 60.28,6.62 C60,6.49 59.86,6.34 59.86,6.16 C59.86,5.96 59.95,5.8 60.14,5.7 C60.3,5.6 60.54,5.56 60.86,5.56 C61.22,5.56 61.5,5.62 61.68,5.74 C61.85,5.85 61.97,6.04 62.05,6.32 L63.08,6.32 C62.96,5.23 62.22,4.69 60.88,4.69 Z M69.24,4.69 C68.46,4.69 67.83,4.95 67.36,5.47 C66.89,5.98 66.66,6.63 66.66,7.42 C66.66,8.2 66.89,8.85 67.35,9.35 C67.83,9.87 68.46,10.14 69.24,10.14 C70.02,10.14 70.65,9.87 71.13,9.35 C71.59,8.85 71.82,8.2 71.82,7.42 C71.82,6.63 71.58,5.98 71.12,5.47 C70.65,4.95 70.02,4.69 69.24,4.69 Z M21.81,2.86 L20.71,2.86 L20.71,10 L21.8,10 L21.8,4.63 L21.84,4.63 L25.53,10 L26.59,10 L26.59,2.86 L25.5,2.86 L25.5,8.17 L25.46,8.17 L21.81,2.86 Z M34.16,4.83 L32.99,4.83 L34.74,10 L35.72,10 L36.8,6.131 L37.88,10 L38.86,10 L40.61,4.83 L39.44,4.83 L38.35,8.74 L37.29,4.83 L36.31,4.83 L35.25,8.74 L34.16,4.83 Z M57.63,4.69 C57.31,4.69 57.03,4.78 56.79,4.98 C56.59,5.12 56.42,5.33 56.29,5.61 L56.29,4.83 L55.23,4.83 L55.23,10 L56.29,10 L56.29,7.26 C56.29,6.81 56.42,6.44 56.69,6.16 C56.94,5.9 57.23,5.77 57.55,5.77 C57.79,5.77 58.04,5.8 58.3,5.88 L58.3,4.82 C58.12,4.73 57.89,4.69 57.63,4.69 Z M65.43,4.83 L64.37,4.83 L64.37,10 L65.43,10 L65.43,4.83 Z M75.45,4.69 C75.13,4.69 74.84,4.75 74.58,4.89 C74.32,5.02 74.09,5.21 73.89,5.47 L73.89,4.83 L72.83,4.83 L72.83,10 L73.89,10 L73.89,6.89 C73.93,6.47 74.08,6.14 74.32,5.9 C74.54,5.68 74.81,5.58 75.11,5.58 C75.91,5.58 76.32,6.02 76.32,6.9 L76.32,10 L77.38,10 L77.38,6.81 C77.38,5.39 76.73,4.69 75.45,4.69 Z M45.19,4.83 L44.04,4.83 L45.96,10 L47.02,10 L48.94,4.83 L47.79,4.83 L46.49,8.679 L45.19,4.83 Z M69.24,5.56 C69.73,5.56 70.11,5.75 70.39,6.14 C70.63,6.47 70.75,6.9 70.75,7.42 C70.75,7.93 70.63,8.35 70.39,8.69 C70.11,9.07 69.73,9.27 69.24,9.27 C68.75,9.27 68.37,9.07 68.1,8.69 C67.86,8.36 67.75,7.94 67.75,7.42 C67.75,6.9 67.86,6.47 68.1,6.14 C68.37,5.75 68.75,5.56 69.24,5.56 Z M12,5 C10.8954305,5 10,5.8954305 10,7 C10,8.1045695 10.8954305,9 12,9 C13.1045695,9 14,8.1045695 14,7 C14,5.8954305 13.1045695,5 12,5 Z M30.12,5.56 C30.96,5.56 31.43,6.01 31.53,6.91 L28.74,6.91 C28.8,6.47 28.95,6.14 29.17,5.91 C29.41,5.67 29.72,5.56 30.12,5.56 Z M51.81,5.56 C52.65,5.56 53.12,6.01 53.22,6.91 L50.43,6.91 C50.49,6.47 50.64,6.14 50.86,5.91 C51.1,5.67 51.41,5.56 51.81,5.56 Z M64.9,2.76 C64.69,2.76 64.52,2.82 64.38,2.96 C64.24,3.09 64.17,3.26 64.17,3.47 C64.17,3.67 64.24,3.85 64.38,3.99 C64.52,4.12 64.69,4.19 64.9,4.19 C65.1,4.19 65.28,4.12 65.42,3.99 C65.56,3.85 65.64,3.68 65.64,3.47 C65.64,3.26 65.57,3.09 65.43,2.96 C65.29,2.82 65.11,2.76 64.9,2.76 Z"
                      id="形状结合"></path>
            </g>
        </g>
    </g>
</svg>
